<?xml version="1.0" encoding="iso-8859-1"?>
<!-- Generator: Adobe Illustrator 19.0.0, SVG Export Plug-In . SVG Version: 6.00 Build 0)  -->
<svg version="1.1" id="Layer_1" xmlns="http://www.w3.org/2000/svg" xmlns:xlink="http://www.w3.org/1999/xlink" x="0px" y="0px"
	 viewBox="0 0 512 512" style="enable-background:new 0 0 512 512;" xml:space="preserve">
<g>
	<g>
		<path d="M461.913,72.348H50.087C22.469,72.348,0,94.817,0,122.435v267.13c0,27.618,22.469,50.087,50.087,50.087
			c15.731,0,396.124,0,411.826,0c27.618,0,50.087-22.469,50.087-50.087v-267.13C512,94.817,489.531,72.348,461.913,72.348z
			 M143.884,406.261l16.696-33.391h190.841l16.696,33.391H143.884z M478.609,389.565c0,9.206-7.49,16.696-16.696,16.696h-56.464
			l-28.777-57.553c-2.829-5.656-8.609-9.229-14.934-9.229H150.261c-6.324,0-12.104,3.573-14.934,9.229l-28.777,57.553H50.087
			c-9.206,0-16.696-7.49-16.696-16.696v-267.13c0-9.206,7.49-16.696,16.696-16.696h411.826c9.206,0,16.696,7.49,16.696,16.696
			V389.565z"/>
	</g>
</g>
<g>
	<g>
		<path d="M378.435,172.522h-244.87c-36.824,0-66.783,29.959-66.783,66.783c0,36.824,29.959,66.783,66.783,66.783h244.87
			c36.824,0,66.783-29.959,66.783-66.783C445.217,202.48,415.259,172.522,378.435,172.522z M133.565,272.696
			c-18.412,0-33.391-14.979-33.391-33.391c0-18.412,14.979-33.391,33.391-33.391c18.412,0,33.391,14.979,33.391,33.391
			C166.957,257.716,151.977,272.696,133.565,272.696z M320.637,272.696H191.363c5.702-9.832,8.984-21.231,8.984-33.391
			c0-12.16-3.282-23.56-8.984-33.391h129.273c-5.702,9.832-8.984,21.231-8.984,33.391
			C311.652,251.464,314.935,262.864,320.637,272.696z M378.435,272.696c-18.412,0-33.391-14.979-33.391-33.391
			c0-18.412,14.979-33.391,33.391-33.391c18.412,0,33.391,14.979,33.391,33.391C411.826,257.716,396.847,272.696,378.435,272.696z"
			/>
	</g>
</g>
<g>
</g>
<g>
</g>
<g>
</g>
<g>
</g>
<g>
</g>
<g>
</g>
<g>
</g>
<g>
</g>
<g>
</g>
<g>
</g>
<g>
</g>
<g>
</g>
<g>
</g>
<g>
</g>
<g>
</g>
</svg>
