<?xml version="1.0" encoding="iso-8859-1"?>
<!-- Generator: Adobe Illustrator 19.0.0, SVG Export Plug-In . SVG Version: 6.00 Build 0)  -->
<svg version="1.1" id="Layer_1" xmlns="http://www.w3.org/2000/svg" xmlns:xlink="http://www.w3.org/1999/xlink" x="0px" y="0px"
	 viewBox="0 0 512 512" style="enable-background:new 0 0 512 512;" xml:space="preserve">
<g>
	<g>
		<g>
			<path d="M409.566,357.308c-0.563-8.9-7.987-15.974-17.033-15.974H119.467c-9.045,0-16.469,7.074-17.033,15.974L85.53,433.348
				c-0.555,2.526,0.06,5.171,1.681,7.185c1.621,2.022,4.062,3.2,6.656,3.2h324.267c2.594,0,5.035-1.178,6.656-3.2
				c1.621-2.014,2.236-4.659,1.681-7.185L409.566,357.308z M104.508,426.667l14.763-66.415c0.128-0.606,0.196-1.229,0.196-1.852
				h273.067c0,0.623,0.068,1.246,0.196,1.852l14.763,66.415H104.508z"/>
			<path d="M149.982,211.089c-0.239-0.171-0.393-0.418-0.649-0.572c-0.333-0.196-0.708-0.213-1.05-0.358
				c-6.067-3.302-12.911-5.359-20.284-5.359s-14.217,2.048-20.267,5.359c-0.358,0.145-0.734,0.162-1.075,0.358
				c-0.256,0.154-0.41,0.401-0.64,0.572c-12.339,7.492-20.685,20.924-20.685,36.378s8.346,28.885,20.676,36.369
				c0.239,0.179,0.393,0.427,0.657,0.589c0.546,0.316,1.126,0.521,1.698,0.7c5.914,3.089,12.518,5.009,19.635,5.009
				c7.134,0,13.756-1.929,19.678-5.035c0.555-0.179,1.126-0.375,1.655-0.683c0.256-0.154,0.401-0.393,0.631-0.563
				c12.348-7.484,20.702-20.924,20.702-36.386v-0.009C170.667,232.004,162.313,218.573,149.982,211.089z M152.115,255.701
				c-1.084,3.183-2.756,6.059-4.932,8.533c-2.62-3.081-7.031-4.087-10.65-1.98c-3.661,2.108-4.992,6.485-3.575,10.308
				c-1.604,0.324-3.26,0.503-4.958,0.503s-3.354-0.179-4.958-0.503c1.425-3.831,0.085-8.209-3.575-10.317
				c-3.618-2.099-8.03-1.092-10.658,1.988c-2.167-2.483-3.84-5.359-4.924-8.533c3.977-0.725,7.049-4.045,7.049-8.235
				s-3.072-7.509-7.049-8.235c1.075-3.149,2.731-5.999,4.864-8.465c1.647,1.946,4.002,3.055,6.46,3.055
				c1.451,0,2.918-0.367,4.267-1.143c3.652-2.108,4.983-6.485,3.567-10.308c1.604-0.324,3.26-0.503,4.958-0.503
				s3.362,0.179,4.966,0.503c-1.417,3.831-0.077,8.209,3.575,10.317c1.348,0.768,2.807,1.135,4.258,1.135
				c2.458,0,4.804-1.109,6.451-3.046c2.142,2.466,3.789,5.316,4.872,8.465c-3.985,0.725-7.049,4.045-7.049,8.235
				C145.075,251.657,148.147,254.976,152.115,255.701z"/>
			<path d="M469.333,68.267H42.667C19.14,68.267,0,87.407,0,110.933v290.133c0,23.526,19.14,42.667,42.667,42.667h17.067
				c4.719,0,8.533-3.823,8.533-8.533s-3.814-8.533-8.533-8.533H42.667c-14.114,0-25.6-11.486-25.6-25.6V110.933
				c0-14.114,11.486-25.6,25.6-25.6h426.667c14.114,0,25.6,11.486,25.6,25.6v290.133c0,14.114-11.486,25.6-25.6,25.6h-17.067
				c-4.719,0-8.533,3.823-8.533,8.533s3.814,8.533,8.533,8.533h17.067c23.526,0,42.667-19.14,42.667-42.667V110.933
				C512,87.407,492.86,68.267,469.333,68.267z"/>
			<path d="M179.456,375.467h-0.085c-4.71,0-8.491,3.823-8.491,8.533s3.866,8.533,8.576,8.533c4.71,0,8.533-3.823,8.533-8.533
				S184.166,375.467,179.456,375.467z"/>
			<path d="M145.323,392.533h-0.085c-4.71,0-8.491,3.823-8.491,8.533c0,4.71,3.866,8.533,8.576,8.533s8.533-3.823,8.533-8.533
				C153.856,396.356,150.033,392.533,145.323,392.533z"/>
			<path d="M333.056,375.467h-0.085c-4.71,0-8.491,3.823-8.491,8.533s3.866,8.533,8.576,8.533s8.533-3.823,8.533-8.533
				S337.766,375.467,333.056,375.467z"/>
			<path d="M367.189,392.533h-0.085c-4.71,0-8.491,3.823-8.491,8.533c0,4.71,3.866,8.533,8.576,8.533
				c4.71,0,8.533-3.823,8.533-8.533C375.723,396.356,371.9,392.533,367.189,392.533z"/>
			<path d="M329.216,205.952c-4.07-2.364-9.301-0.981-11.656,3.106c-6.776,11.691-10.359,24.969-10.359,38.409
				s3.584,26.718,10.359,38.409c1.579,2.731,4.446,4.258,7.39,4.258c1.451,0,2.927-0.367,4.267-1.152
				c4.087-2.364,5.478-7.578,3.106-11.657c-5.274-9.097-8.055-19.422-8.055-29.858s2.782-20.762,8.055-29.858
				C334.694,213.53,333.303,208.316,329.216,205.952z"/>
			<path d="M465.067,102.4c-7.057,0-12.8,5.743-12.8,12.8s5.743,12.8,12.8,12.8s12.8-5.743,12.8-12.8S472.124,102.4,465.067,102.4z"
				/>
			<path d="M384,170.667H128c-42.351,0-76.8,34.458-76.8,76.8s34.449,76.8,76.8,76.8h256c42.351,0,76.8-34.458,76.8-76.8
				S426.351,170.667,384,170.667z M384,307.2H128c-32.93,0-59.733-26.795-59.733-59.733S95.07,187.733,128,187.733h256
				c32.93,0,59.733,26.795,59.733,59.733S416.93,307.2,384,307.2z"/>
			<path d="M46.933,409.6c7.057,0,12.8-5.743,12.8-12.8S53.99,384,46.933,384s-12.8,5.743-12.8,12.8S39.876,409.6,46.933,409.6z"/>
			<path d="M182.784,205.952c-4.087,2.364-5.478,7.578-3.106,11.656c5.274,9.097,8.055,19.422,8.055,29.858
				s-2.782,20.762-8.055,29.858c-2.372,4.079-0.981,9.293,3.106,11.657c1.34,0.785,2.816,1.152,4.267,1.152
				c2.944,0,5.811-1.527,7.39-4.258c6.775-11.691,10.359-24.969,10.359-38.409s-3.584-26.718-10.359-38.409
				C192.085,204.979,186.854,203.597,182.784,205.952z"/>
			<path d="M46.933,128c7.057,0,12.8-5.743,12.8-12.8s-5.743-12.8-12.8-12.8s-12.8,5.743-12.8,12.8S39.876,128,46.933,128z"/>
			<path d="M405.982,211.089c-0.239-0.171-0.393-0.418-0.648-0.572c-0.333-0.196-0.708-0.205-1.05-0.358
				c-6.067-3.302-12.911-5.359-20.284-5.359c-7.373,0-14.216,2.048-20.275,5.359c-0.35,0.145-0.725,0.162-1.067,0.358
				c-0.256,0.154-0.41,0.401-0.64,0.572c-12.339,7.492-20.685,20.924-20.685,36.378s8.346,28.885,20.676,36.369
				c0.239,0.179,0.393,0.427,0.657,0.589c0.546,0.316,1.126,0.521,1.698,0.7c5.914,3.089,12.518,5.009,19.635,5.009
				c7.134,0,13.756-1.929,19.678-5.035c0.555-0.179,1.126-0.375,1.656-0.683c0.256-0.154,0.401-0.393,0.631-0.563
				c12.348-7.484,20.702-20.924,20.702-36.386v-0.009C426.667,232.004,418.313,218.573,405.982,211.089z M408.115,255.701
				c-1.084,3.183-2.756,6.059-4.932,8.533c-2.62-3.081-7.031-4.087-10.65-1.98c-3.661,2.108-4.992,6.485-3.575,10.308
				c-1.604,0.324-3.26,0.503-4.958,0.503c-1.698,0-3.354-0.179-4.958-0.503c1.425-3.831,0.085-8.209-3.575-10.317
				c-3.618-2.099-8.03-1.092-10.658,1.988c-2.167-2.483-3.84-5.359-4.924-8.533c3.977-0.725,7.049-4.045,7.049-8.235
				s-3.072-7.509-7.049-8.235c1.075-3.149,2.731-5.999,4.864-8.465c1.655,1.946,4.002,3.055,6.46,3.055
				c1.451,0,2.918-0.367,4.267-1.143c3.652-2.108,4.983-6.485,3.567-10.308c1.604-0.324,3.26-0.503,4.958-0.503
				c1.698,0,3.362,0.179,4.966,0.503c-1.417,3.831-0.077,8.209,3.575,10.317c1.348,0.768,2.807,1.135,4.258,1.135
				c2.458,0,4.804-1.109,6.451-3.046c2.142,2.466,3.789,5.316,4.873,8.465c-3.985,0.725-7.049,4.045-7.049,8.235
				C401.075,251.657,404.147,254.976,408.115,255.701z"/>
			<path d="M366.933,136.533c4.719,0,8.533-3.823,8.533-8.533c0-4.71-3.814-8.533-8.533-8.533H145.067
				c-4.719,0-8.533,3.823-8.533,8.533c0,4.71,3.814,8.533,8.533,8.533H366.933z"/>
			<path d="M465.067,384c-7.057,0-12.8,5.743-12.8,12.8s5.743,12.8,12.8,12.8s12.8-5.743,12.8-12.8S472.124,384,465.067,384z"/>
		</g>
	</g>
</g>
<g>
</g>
<g>
</g>
<g>
</g>
<g>
</g>
<g>
</g>
<g>
</g>
<g>
</g>
<g>
</g>
<g>
</g>
<g>
</g>
<g>
</g>
<g>
</g>
<g>
</g>
<g>
</g>
<g>
</g>
</svg>
